<?xml version="1.0" encoding="utf-8" standalone="no"?>
<!DOCTYPE svg PUBLIC "-//W3C//DTD SVG 1.1//EN"
  "http://www.w3.org/Graphics/SVG/1.1/DTD/svg11.dtd">
<!-- Created with matplotlib (http://matplotlib.org/) -->
<svg height="559.44pt" version="1.1" viewBox="0 0 1036.8 559.44" width="1036.8pt" xmlns="http://www.w3.org/2000/svg" xmlns:xlink="http://www.w3.org/1999/xlink">
 <defs>
  <style type="text/css">
*{stroke-linecap:butt;stroke-linejoin:round;}
  </style>
 </defs>
 <g id="figure_1">
  <g id="patch_1">
   <path d="M 0 559.44 
L 1036.8 559.44 
L 1036.8 0 
L 0 0 
z
" style="fill:#ffffff;"/>
  </g>
  <g id="axes_1">
   <g id="patch_2">
    <path d="M 129.6 497.9016 
L 933.12 497.9016 
L 933.12 67.1328 
L 129.6 67.1328 
z
" style="fill:#ffffff;"/>
   </g>
   <g id="matplotlib.axis_1">
    <g id="xtick_1">
     <g id="line2d_1">
      <defs>
       <path d="M 0 0 
L 0 3.5 
" id="me617ab4528" style="stroke:#000000;stroke-width:0.8;"/>
      </defs>
      <g>
       <use style="stroke:#000000;stroke-width:0.8;" x="166.123636" xlink:href="#me617ab4528" y="497.9016"/>
      </g>
     </g>
     <g id="text_1">
      <!-- 0.0 -->
      <defs>
       <path d="M 31.78125 66.40625 
Q 24.171875 66.40625 20.328125 58.90625 
Q 16.5 51.421875 16.5 36.375 
Q 16.5 21.390625 20.328125 13.890625 
Q 24.171875 6.390625 31.78125 6.390625 
Q 39.453125 6.390625 43.28125 13.890625 
Q 47.125 21.390625 47.125 36.375 
Q 47.125 51.421875 43.28125 58.90625 
Q 39.453125 66.40625 31.78125 66.40625 
z
M 31.78125 74.21875 
Q 44.046875 74.21875 50.515625 64.515625 
Q 56.984375 54.828125 56.984375 36.375 
Q 56.984375 17.96875 50.515625 8.265625 
Q 44.046875 -1.421875 31.78125 -1.421875 
Q 19.53125 -1.421875 13.0625 8.265625 
Q 6.59375 17.96875 6.59375 36.375 
Q 6.59375 54.828125 13.0625 64.515625 
Q 19.53125 74.21875 31.78125 74.21875 
z
" id="DejaVuSans-30"/>
       <path d="M 10.6875 12.40625 
L 21 12.40625 
L 21 0 
L 10.6875 0 
z
" id="DejaVuSans-2e"/>
      </defs>
      <g transform="translate(158.172074 512.500037)scale(0.1 -0.1)">
       <use xlink:href="#DejaVuSans-30"/>
       <use x="63.623047" xlink:href="#DejaVuSans-2e"/>
       <use x="95.410156" xlink:href="#DejaVuSans-30"/>
      </g>
     </g>
    </g>
    <g id="xtick_2">
     <g id="line2d_2">
      <g>
       <use style="stroke:#000000;stroke-width:0.8;" x="312.218196" xlink:href="#me617ab4528" y="497.9016"/>
      </g>
     </g>
     <g id="text_2">
      <!-- 0.2 -->
      <defs>
       <path d="M 19.1875 8.296875 
L 53.609375 8.296875 
L 53.609375 0 
L 7.328125 0 
L 7.328125 8.296875 
Q 12.9375 14.109375 22.625 23.890625 
Q 32.328125 33.6875 34.8125 36.53125 
Q 39.546875 41.84375 41.421875 45.53125 
Q 43.3125 49.21875 43.3125 52.78125 
Q 43.3125 58.59375 39.234375 62.25 
Q 35.15625 65.921875 28.609375 65.921875 
Q 23.96875 65.921875 18.8125 64.3125 
Q 13.671875 62.703125 7.8125 59.421875 
L 7.8125 69.390625 
Q 13.765625 71.78125 18.9375 73 
Q 24.125 74.21875 28.421875 74.21875 
Q 39.75 74.21875 46.484375 68.546875 
Q 53.21875 62.890625 53.21875 53.421875 
Q 53.21875 48.921875 51.53125 44.890625 
Q 49.859375 40.875 45.40625 35.40625 
Q 44.1875 33.984375 37.640625 27.21875 
Q 31.109375 20.453125 19.1875 8.296875 
z
" id="DejaVuSans-32"/>
      </defs>
      <g transform="translate(304.266634 512.500037)scale(0.1 -0.1)">
       <use xlink:href="#DejaVuSans-30"/>
       <use x="63.623047" xlink:href="#DejaVuSans-2e"/>
       <use x="95.410156" xlink:href="#DejaVuSans-32"/>
      </g>
     </g>
    </g>
    <g id="xtick_3">
     <g id="line2d_3">
      <g>
       <use style="stroke:#000000;stroke-width:0.8;" x="458.312756" xlink:href="#me617ab4528" y="497.9016"/>
      </g>
     </g>
     <g id="text_3">
      <!-- 0.4 -->
      <defs>
       <path d="M 37.796875 64.3125 
L 12.890625 25.390625 
L 37.796875 25.390625 
z
M 35.203125 72.90625 
L 47.609375 72.90625 
L 47.609375 25.390625 
L 58.015625 25.390625 
L 58.015625 17.1875 
L 47.609375 17.1875 
L 47.609375 0 
L 37.796875 0 
L 37.796875 17.1875 
L 4.890625 17.1875 
L 4.890625 26.703125 
z
" id="DejaVuSans-34"/>
      </defs>
      <g transform="translate(450.361194 512.500037)scale(0.1 -0.1)">
       <use xlink:href="#DejaVuSans-30"/>
       <use x="63.623047" xlink:href="#DejaVuSans-2e"/>
       <use x="95.410156" xlink:href="#DejaVuSans-34"/>
      </g>
     </g>
    </g>
    <g id="xtick_4">
     <g id="line2d_4">
      <g>
       <use style="stroke:#000000;stroke-width:0.8;" x="604.407317" xlink:href="#me617ab4528" y="497.9016"/>
      </g>
     </g>
     <g id="text_4">
      <!-- 0.6 -->
      <defs>
       <path d="M 33.015625 40.375 
Q 26.375 40.375 22.484375 35.828125 
Q 18.609375 31.296875 18.609375 23.390625 
Q 18.609375 15.53125 22.484375 10.953125 
Q 26.375 6.390625 33.015625 6.390625 
Q 39.65625 6.390625 43.53125 10.953125 
Q 47.40625 15.53125 47.40625 23.390625 
Q 47.40625 31.296875 43.53125 35.828125 
Q 39.65625 40.375 33.015625 40.375 
z
M 52.59375 71.296875 
L 52.59375 62.3125 
Q 48.875 64.0625 45.09375 64.984375 
Q 41.3125 65.921875 37.59375 65.921875 
Q 27.828125 65.921875 22.671875 59.328125 
Q 17.53125 52.734375 16.796875 39.40625 
Q 19.671875 43.65625 24.015625 45.921875 
Q 28.375 48.1875 33.59375 48.1875 
Q 44.578125 48.1875 50.953125 41.515625 
Q 57.328125 34.859375 57.328125 23.390625 
Q 57.328125 12.15625 50.6875 5.359375 
Q 44.046875 -1.421875 33.015625 -1.421875 
Q 20.359375 -1.421875 13.671875 8.265625 
Q 6.984375 17.96875 6.984375 36.375 
Q 6.984375 53.65625 15.1875 63.9375 
Q 23.390625 74.21875 37.203125 74.21875 
Q 40.921875 74.21875 44.703125 73.484375 
Q 48.484375 72.75 52.59375 71.296875 
z
" id="DejaVuSans-36"/>
      </defs>
      <g transform="translate(596.455754 512.500037)scale(0.1 -0.1)">
       <use xlink:href="#DejaVuSans-30"/>
       <use x="63.623047" xlink:href="#DejaVuSans-2e"/>
       <use x="95.410156" xlink:href="#DejaVuSans-36"/>
      </g>
     </g>
    </g>
    <g id="xtick_5">
     <g id="line2d_5">
      <g>
       <use style="stroke:#000000;stroke-width:0.8;" x="750.501877" xlink:href="#me617ab4528" y="497.9016"/>
      </g>
     </g>
     <g id="text_5">
      <!-- 0.8 -->
      <defs>
       <path d="M 31.78125 34.625 
Q 24.75 34.625 20.71875 30.859375 
Q 16.703125 27.09375 16.703125 20.515625 
Q 16.703125 13.921875 20.71875 10.15625 
Q 24.75 6.390625 31.78125 6.390625 
Q 38.8125 6.390625 42.859375 10.171875 
Q 46.921875 13.96875 46.921875 20.515625 
Q 46.921875 27.09375 42.890625 30.859375 
Q 38.875 34.625 31.78125 34.625 
z
M 21.921875 38.8125 
Q 15.578125 40.375 12.03125 44.71875 
Q 8.5 49.078125 8.5 55.328125 
Q 8.5 64.0625 14.71875 69.140625 
Q 20.953125 74.21875 31.78125 74.21875 
Q 42.671875 74.21875 48.875 69.140625 
Q 55.078125 64.0625 55.078125 55.328125 
Q 55.078125 49.078125 51.53125 44.71875 
Q 48 40.375 41.703125 38.8125 
Q 48.828125 37.15625 52.796875 32.3125 
Q 56.78125 27.484375 56.78125 20.515625 
Q 56.78125 9.90625 50.3125 4.234375 
Q 43.84375 -1.421875 31.78125 -1.421875 
Q 19.734375 -1.421875 13.25 4.234375 
Q 6.78125 9.90625 6.78125 20.515625 
Q 6.78125 27.484375 10.78125 32.3125 
Q 14.796875 37.15625 21.921875 38.8125 
z
M 18.3125 54.390625 
Q 18.3125 48.734375 21.84375 45.5625 
Q 25.390625 42.390625 31.78125 42.390625 
Q 38.140625 42.390625 41.71875 45.5625 
Q 45.3125 48.734375 45.3125 54.390625 
Q 45.3125 60.0625 41.71875 63.234375 
Q 38.140625 66.40625 31.78125 66.40625 
Q 25.390625 66.40625 21.84375 63.234375 
Q 18.3125 60.0625 18.3125 54.390625 
z
" id="DejaVuSans-38"/>
      </defs>
      <g transform="translate(742.550314 512.500037)scale(0.1 -0.1)">
       <use xlink:href="#DejaVuSans-30"/>
       <use x="63.623047" xlink:href="#DejaVuSans-2e"/>
       <use x="95.410156" xlink:href="#DejaVuSans-38"/>
      </g>
     </g>
    </g>
    <g id="xtick_6">
     <g id="line2d_6">
      <g>
       <use style="stroke:#000000;stroke-width:0.8;" x="896.596437" xlink:href="#me617ab4528" y="497.9016"/>
      </g>
     </g>
     <g id="text_6">
      <!-- 1.0 -->
      <defs>
       <path d="M 12.40625 8.296875 
L 28.515625 8.296875 
L 28.515625 63.921875 
L 10.984375 60.40625 
L 10.984375 69.390625 
L 28.421875 72.90625 
L 38.28125 72.90625 
L 38.28125 8.296875 
L 54.390625 8.296875 
L 54.390625 0 
L 12.40625 0 
z
" id="DejaVuSans-31"/>
      </defs>
      <g transform="translate(888.644874 512.500037)scale(0.1 -0.1)">
       <use xlink:href="#DejaVuSans-31"/>
       <use x="63.623047" xlink:href="#DejaVuSans-2e"/>
       <use x="95.410156" xlink:href="#DejaVuSans-30"/>
      </g>
     </g>
    </g>
   </g>
   <g id="matplotlib.axis_2">
    <g id="ytick_1">
     <g id="line2d_7">
      <defs>
       <path d="M 0 0 
L -3.5 0 
" id="me04715bbb5" style="stroke:#000000;stroke-width:0.8;"/>
      </defs>
      <g>
       <use style="stroke:#000000;stroke-width:0.8;" x="129.6" xlink:href="#me04715bbb5" y="440.812822"/>
      </g>
     </g>
     <g id="text_7">
      <!-- −0.002 -->
      <defs>
       <path d="M 10.59375 35.5 
L 73.1875 35.5 
L 73.1875 27.203125 
L 10.59375 27.203125 
z
" id="DejaVuSans-2212"/>
      </defs>
      <g transform="translate(85.592187 444.61204)scale(0.1 -0.1)">
       <use xlink:href="#DejaVuSans-2212"/>
       <use x="83.789062" xlink:href="#DejaVuSans-30"/>
       <use x="147.412109" xlink:href="#DejaVuSans-2e"/>
       <use x="179.199219" xlink:href="#DejaVuSans-30"/>
       <use x="242.822266" xlink:href="#DejaVuSans-30"/>
       <use x="306.445312" xlink:href="#DejaVuSans-32"/>
      </g>
     </g>
    </g>
    <g id="ytick_2">
     <g id="line2d_8">
      <g>
       <use style="stroke:#000000;stroke-width:0.8;" x="129.6" xlink:href="#me04715bbb5" y="347.455572"/>
      </g>
     </g>
     <g id="text_8">
      <!-- 0.000 -->
      <g transform="translate(93.971875 351.25479)scale(0.1 -0.1)">
       <use xlink:href="#DejaVuSans-30"/>
       <use x="63.623047" xlink:href="#DejaVuSans-2e"/>
       <use x="95.410156" xlink:href="#DejaVuSans-30"/>
       <use x="159.033203" xlink:href="#DejaVuSans-30"/>
       <use x="222.65625" xlink:href="#DejaVuSans-30"/>
      </g>
     </g>
    </g>
    <g id="ytick_3">
     <g id="line2d_9">
      <g>
       <use style="stroke:#000000;stroke-width:0.8;" x="129.6" xlink:href="#me04715bbb5" y="254.098321"/>
      </g>
     </g>
     <g id="text_9">
      <!-- 0.002 -->
      <g transform="translate(93.971875 257.89754)scale(0.1 -0.1)">
       <use xlink:href="#DejaVuSans-30"/>
       <use x="63.623047" xlink:href="#DejaVuSans-2e"/>
       <use x="95.410156" xlink:href="#DejaVuSans-30"/>
       <use x="159.033203" xlink:href="#DejaVuSans-30"/>
       <use x="222.65625" xlink:href="#DejaVuSans-32"/>
      </g>
     </g>
    </g>
    <g id="ytick_4">
     <g id="line2d_10">
      <g>
       <use style="stroke:#000000;stroke-width:0.8;" x="129.6" xlink:href="#me04715bbb5" y="160.741071"/>
      </g>
     </g>
     <g id="text_10">
      <!-- 0.004 -->
      <g transform="translate(93.971875 164.54029)scale(0.1 -0.1)">
       <use xlink:href="#DejaVuSans-30"/>
       <use x="63.623047" xlink:href="#DejaVuSans-2e"/>
       <use x="95.410156" xlink:href="#DejaVuSans-30"/>
       <use x="159.033203" xlink:href="#DejaVuSans-30"/>
       <use x="222.65625" xlink:href="#DejaVuSans-34"/>
      </g>
     </g>
    </g>
    <g id="ytick_5">
     <g id="line2d_11">
      <g>
       <use style="stroke:#000000;stroke-width:0.8;" x="129.6" xlink:href="#me04715bbb5" y="67.383821"/>
      </g>
     </g>
     <g id="text_11">
      <!-- 0.006 -->
      <g transform="translate(93.971875 71.18304)scale(0.1 -0.1)">
       <use xlink:href="#DejaVuSans-30"/>
       <use x="63.623047" xlink:href="#DejaVuSans-2e"/>
       <use x="95.410156" xlink:href="#DejaVuSans-30"/>
       <use x="159.033203" xlink:href="#DejaVuSans-30"/>
       <use x="222.65625" xlink:href="#DejaVuSans-36"/>
      </g>
     </g>
    </g>
   </g>
   <g id="line2d_12">
    <path clip-path="url(#pbb0c20e59f)" d="M 166.123636 347.455572 
L 166.248912 347.345008 
L 166.331602 347.336348 
L 166.335985 347.515387 
L 166.355269 347.455572 
L 166.486024 347.56586 
L 166.488508 347.635078 
L 166.501656 347.0979 
L 166.588071 347.0979 
L 166.752135 347.208806 
L 166.760755 347.635085 
L 166.86828 347.4541 
L 166.917003 347.34324 
L 166.999619 347.336348 
L 167.004002 347.515393 
L 167.022702 347.455572 
L 167.167774 347.565742 
L 167.218323 347.994113 
L 167.24126 346.870273 
L 167.360984 346.382558 
L 168.003435 346.493018 
L 168.034991 347.994112 
L 168.147265 347.442324 
L 168.489784 347.55057 
L 168.49256 347.635083 
L 168.505708 347.0979 
L 168.592781 347.0979 
L 168.756114 347.20584 
L 168.764807 347.635085 
L 168.872332 347.4541 
L 168.921055 347.342992 
L 169.003671 347.336348 
L 169.008054 347.515406 
L 169.026681 347.455572 
L 169.205355 347.346672 
L 169.277599 346.992686 
L 169.297248 347.926146 
L 169.407696 349.071196 
L 169.34451 346.4847 
L 169.425666 348.700022 
L 169.650651 344.23653 
L 171.753317 344.346457 
L 171.812778 347.195554 
L 171.857775 349.071196 
L 171.914313 346.573699 
L 171.920961 346.484699 
L 171.960625 348.103323 
L 171.996857 347.315147 
L 172.007741 347.80283 
L 172.022862 347.185429 
L 172.110372 347.46684 
L 172.205042 347.41583 
L 172.176334 347.475417 
L 172.221696 347.455572 
L 172.260996 347.345968 
L 172.343758 347.336348 
L 172.348141 347.515407 
L 172.367645 347.455572 
L 172.498107 347.563833 
L 172.500664 347.635085 
L 172.513739 347.0979 
L 172.6003 347.0979 
L 172.764218 347.206947 
L 172.772911 347.635076 
L 172.880437 347.4541 
L 172.929086 347.344099 
L 173.011776 347.336348 
L 173.016159 347.515404 
L 173.035151 347.455572 
L 173.179931 347.566404 
L 173.230479 347.99411 
L 173.252759 346.905967 
L 173.372848 346.382558 
L 174.015518 346.49191 
L 174.047148 347.994112 
L 174.159568 347.442324 
L 174.50194 347.552513 
L 174.504716 347.635081 
L 174.517792 347.0979 
L 174.604864 347.0979 
L 174.768271 347.207502 
L 174.77689 347.635074 
L 174.884416 347.4541 
L 174.933138 347.343837 
L 175.015828 347.336348 
L 175.020211 347.51539 
L 175.03913 347.455572 
L 175.268937 347.344855 
L 175.340012 347.177597 
L 175.354475 347.776011 
L 175.354694 347.776308 
L 175.361634 347.518756 
L 175.480482 346.645141 
L 175.444688 348.103999 
L 175.485668 346.711065 
L 175.52599 348.497356 
L 175.576247 346.194122 
L 175.585597 346.066911 
L 175.626211 347.837876 
L 175.667263 349.398829 
L 175.723583 346.963817 
L 175.786184 344.542954 
L 175.842869 346.434904 
L 175.975888 352.302446 
L 176.03323 351.048174 
L 176.466182 337.798447 
L 182.996024 337.909424 
L 183.067756 339.677899 
L 183.325979 352.302447 
L 183.417434 349.055135 
L 183.515609 344.542954 
L 183.570103 346.449468 
L 183.63453 349.398828 
L 183.689535 346.96366 
L 183.71627 346.066912 
L 183.774489 348.493631 
L 183.77595 348.497347 
L 183.792386 347.997247 
L 183.821312 346.645142 
L 183.857178 348.103999 
L 183.906339 347.837839 
L 183.909992 347.897756 
L 183.93008 347.081397 
L 184.002177 347.357095 
L 184.004734 347.284867 
L 184.012696 347.609204 
L 184.11131 347.453148 
L 184.200574 347.47544 
L 184.202035 347.41583 
L 184.22183 347.41583 
L 184.513289 347.526621 
L 184.524904 347.635085 
L 184.537979 347.0979 
L 184.572677 347.0979 
L 184.788458 347.206759 
L 184.797151 347.635078 
L 184.904676 347.4541 
L 184.953326 347.344189 
L 185.036015 347.336348 
L 185.040398 347.515407 
L 185.059464 347.455572 
L 185.20417 347.566331 
L 185.254719 347.994111 
L 185.277071 346.901961 
L 185.397161 346.382558 
L 186.039758 346.491798 
L 186.071388 347.994112 
L 186.183807 347.442324 
L 186.52618 347.552294 
L 186.528956 347.635082 
L 186.542031 347.0979 
L 186.629104 347.0979 
L 186.79251 347.207314 
L 186.801203 347.63507 
L 186.908656 347.4541 
L 186.957378 347.343925 
L 187.040068 347.336348 
L 187.04445 347.515396 
L 187.06337 347.455572 
L 187.241751 347.345723 
L 187.313995 346.992685 
L 187.333425 347.917593 
L 187.444092 349.071196 
L 187.380833 346.4847 
L 187.461843 348.707365 
L 187.687997 344.23653 
L 189.789713 344.346968 
L 189.84932 347.207053 
L 189.894098 349.071196 
L 189.950636 346.574809 
L 189.957357 346.4847 
L 189.996948 348.103322 
L 190.033253 347.317051 
L 190.044064 347.802832 
L 190.059258 347.185432 
L 190.146695 347.468191 
L 190.241438 347.41583 
L 190.212657 347.475506 
L 190.258165 347.455572 
L 190.297392 347.345199 
L 190.380081 347.336348 
L 190.384464 347.515371 
L 190.403822 347.455572 
L 190.534503 347.56545 
L 190.536987 347.635073 
L 190.550135 347.0979 
L 190.636623 347.0979 
L 190.800615 347.208428 
L 190.809234 347.635084 
L 190.91676 347.4541 
L 190.965482 347.34341 
L 191.048099 347.336348 
L 191.052482 347.51538 
L 191.071255 347.455572 
L 191.216254 347.565586 
L 191.266802 347.994113 
L 191.289885 346.862473 
L 191.409537 346.382558 
L 192.051915 346.492793 
L 192.083471 347.994111 
L 192.195818 347.442324 
L 192.538263 347.550128 
L 192.541039 347.63508 
L 192.554188 347.0979 
L 192.64126 347.0979 
L 192.804667 347.208986 
L 192.813286 347.635085 
L 192.920812 347.4541 
L 192.969534 347.343159 
L 193.052151 347.336348 
L 193.056534 347.515398 
L 193.075234 347.455572 
L 193.395911 347.565998 
L 193.4702 347.656897 
L 193.460558 347.267246 
L 193.478601 347.270733 
L 193.561071 347.109423 
L 193.544782 347.772877 
L 193.574877 347.750109 
L 193.670642 348.027923 
L 193.64398 346.943457 
L 193.68233 347.608229 
L 193.772689 346.621627 
L 193.734266 348.185293 
L 193.79453 347.533736 
L 193.868016 346.333041 
L 193.92492 348.765774 
L 193.928207 348.782125 
L 193.953189 347.943855 
L 193.999866 345.86382 
L 194.055601 348.45454 
L 194.08672 349.40086 
L 194.141359 347.05166 
L 194.194172 345.02428 
L 194.250345 347.182017 
L 194.330551 350.580933 
L 194.386725 348.783057 
L 194.509444 343.289589 
L 194.567809 344.807614 
L 194.754591 353.285342 
L 194.823036 351.764789 
L 195.111354 338.717718 
L 195.202225 340.512582 
L 195.410482 352.540922 
L 195.673526 361.98985 
L 195.682218 361.995689 
L 195.714943 361.832232 
L 195.806253 359.921129 
L 196.008886 349.960926 
L 196.613206 319.592666 
L 196.787351 318.484197 
L 216.711507 318.595151 
L 216.806031 319.744258 
L 216.980321 325.115592 
L 217.297347 343.251127 
L 217.692021 361.792977 
L 217.730955 361.996181 
L 217.784426 361.592481 
L 217.895604 358.244319 
L 218.299628 338.717718 
L 218.397804 340.923686 
L 218.656391 353.285343 
L 218.739446 350.976198 
L 218.901465 343.289588 
L 218.963482 345.075454 
L 219.080358 350.580934 
L 219.139161 348.537641 
L 219.216737 345.02428 
L 219.272034 347.209729 
L 219.32419 349.40086 
L 219.37934 346.969579 
L 219.411043 345.863821 
L 219.466559 348.404444 
L 219.482775 348.782124 
L 219.533835 346.47782 
L 219.542893 346.333041 
L 219.586356 348.293875 
L 219.594099 348.417782 
L 219.63822 346.621628 
L 219.686139 347.946239 
L 219.710391 346.811687 
L 219.74034 348.027924 
L 219.815359 347.079599 
L 219.832014 347.834684 
L 219.94385 347.566142 
L 219.950351 347.267239 
L 219.959263 347.632136 
L 220.057 347.456644 
L 220.058753 347.527065 
L 220.062186 347.38688 
L 220.168251 347.465257 
L 220.273293 347.475492 
L 220.281401 347.41583 
L 220.586008 347.526497 
L 220.597623 347.635085 
L 220.610698 347.097901 
L 220.649194 347.0979 
L 220.861177 347.206195 
L 220.86987 347.635083 
L 220.977396 347.4541 
L 221.026045 347.344463 
L 221.108735 347.336348 
L 221.113117 347.515409 
L 221.132256 347.455572 
L 221.276889 347.566109 
L 221.327438 347.994112 
L 221.35001 346.890007 
L 221.469953 346.382558 
L 222.11255 346.493566 
L 222.144107 347.994113 
L 222.256307 347.442324 
L 222.598899 347.551636 
L 222.601675 347.635085 
L 222.61475 347.0979 
L 222.701823 347.0979 
L 222.865229 347.206749 
L 222.873922 347.635078 
L 222.981448 347.4541 
L 223.030097 347.344194 
L 223.112787 347.336348 
L 223.11717 347.515407 
L 223.136235 347.455572 
L 223.31447 347.346083 
L 223.386714 346.992685 
L 223.406218 347.920395 
L 223.516811 349.071197 
L 223.453552 346.484701 
L 223.534635 348.704983 
L 223.760424 344.23653 
L 225.862432 344.346773 
L 225.921966 347.201539 
L 225.966817 349.071196 
L 226.023429 346.573206 
L 226.030076 346.484699 
L 226.069668 348.10332 
L 226.105899 347.311793 
L 226.116783 347.802829 
L 226.131977 347.185429 
L 226.219488 347.466092 
L 226.314157 347.41583 
L 226.285376 347.475467 
L 226.330812 347.455572 
L 226.370111 347.345489 
L 226.452874 347.336348 
L 226.457256 347.515384 
L 226.476614 347.455572 
L 226.607223 347.564833 
L 226.609779 347.635077 
L 226.622855 347.0979 
L 226.709343 347.0979 
L 226.873334 347.20786 
L 226.881953 347.635079 
L 226.989479 347.4541 
L 227.038201 347.34367 
L 227.120891 347.336349 
L 227.125274 347.515376 
L 227.14412 347.455572 
L 227.288973 347.565349 
L 227.339521 347.994111 
L 227.362824 346.85086 
L 227.482329 346.382558 
L 228.124634 346.492455 
L 228.156263 347.994108 
L 228.26861 347.442324 
L 228.610982 347.549464 
L 228.613758 347.635073 
L 228.626907 347.0979 
L 228.714052 347.0979 
L 228.877386 347.208418 
L 228.886005 347.635084 
L 228.993531 347.4541 
L 229.042254 347.343415 
L 229.12487 347.336348 
L 229.129253 347.515379 
L 229.148026 347.455572 
L 229.378052 347.344519 
L 229.449054 347.177594 
L 229.46286 347.770836 
L 229.500917 347.897756 
L 229.480829 347.0814 
L 229.517353 347.127582 
L 229.589597 346.645142 
L 229.553731 348.103998 
L 229.615163 347.799377 
L 229.635032 348.497359 
L 229.694639 346.066912 
L 229.698291 346.085906 
L 229.73182 347.614302 
L 229.776379 349.398829 
L 229.832698 346.962601 
L 229.8953 344.542954 
L 229.951984 346.436006 
L 230.085004 352.302446 
L 230.142273 351.0504 
L 230.575516 337.798447 
L 237.105066 337.908904 
L 237.176653 339.670043 
L 237.435094 352.302446 
L 237.526695 349.044798 
L 237.624725 344.542954 
L 237.679218 346.450638 
L 237.743646 349.398829 
L 237.798577 346.966832 
L 237.825312 346.066912 
L 237.883604 348.493732 
L 237.884992 348.497358 
L 237.901355 348.004305 
L 237.930427 346.645141 
L 237.966221 348.103998 
L 238.015455 347.83844 
L 238.019107 347.897756 
L 238.039122 347.0814 
L 238.11122 347.359917 
L 238.113849 347.284867 
L 238.121811 347.609208 
L 238.220425 347.454352 
L 238.309616 347.475447 
L 238.31115 347.41583 
L 238.330873 347.41583 
L 238.622404 347.526805 
L 238.634019 347.635079 
L 238.647094 347.0979 
L 238.674049 347.0979 
L 238.897573 347.207672 
L 238.906193 347.635077 
L 239.013719 347.4541 
L 239.062441 347.343757 
L 239.145131 347.336348 
L 239.149514 347.515384 
L 239.16836 347.455572 
L 239.313286 347.566679 
L 239.363761 347.99411 
L 239.385895 346.917855 
L 239.50613 346.382558 
L 240.148873 346.492342 
L 240.180503 347.994109 
L 240.29285 347.442324 
L 240.635295 347.553353 
L 240.638071 347.635072 
L 240.651146 347.0979 
L 240.738146 347.0979 
L 240.901626 347.208229 
L 240.910245 347.635082 
L 241.017771 347.4541 
L 241.066493 347.343501 
L 241.14911 347.336348 
L 241.153493 347.515371 
L 241.172339 347.455572 
L 241.350866 347.345151 
L 241.42311 346.992689 
L 241.442395 347.911727 
L 241.553207 349.071195 
L 241.489948 346.484699 
L 241.570812 348.712283 
L 241.79777 344.23653 
L 243.898829 344.347285 
L 243.958508 347.213035 
L 244.003213 349.071197 
L 244.059752 346.574313 
L 244.066472 346.484703 
L 244.106064 348.103324 
L 244.142368 347.318229 
L 244.153179 347.802834 
L 244.1683 347.185435 
L 244.255811 347.467645 
L 244.350553 347.41583 
L 244.321772 347.475511 
L 244.367208 347.455572 
L 244.406507 347.34474 
L 244.489197 347.336348 
L 244.49358 347.515402 
L 244.512791 347.455572 
L 244.643619 347.566442 
L 244.646102 347.635083 
L 244.659251 347.0979 
L 244.745666 347.0979 
L 244.909657 347.20582 
L 244.918349 347.635085 
L 245.025875 347.4541 
L 245.074598 347.343 
L 245.157214 347.336348 
L 245.161597 347.515405 
L 245.180224 347.455572 
L 245.325369 347.565959 
L 245.375918 347.994113 
L 245.398635 346.882094 
L 245.518506 346.382558 
L 246.16103 346.49334 
L 246.192586 347.994113 
L 246.30486 347.442324 
L 246.647379 347.551197 
L 246.650154 347.635085 
L 246.66323 347.0979 
L 246.750375 347.0979 
L 246.913709 347.206373 
L 246.922402 347.635082 
L 247.029927 347.4541 
L 247.078577 347.344376 
L 247.161266 347.336348 
L 247.165649 347.51541 
L 247.184714 347.455572 
L 247.664197 347.344771 
L 247.744549 347.290948 
L 247.736587 347.614513 
L 247.750173 347.549293 
L 247.855142 347.709432 
L 247.842943 347.212515 
L 247.860548 347.509312 
L 247.958431 347.100993 
L 247.941411 347.792422 
L 247.969827 347.62083 
L 248.058652 347.923911 
L 248.036226 347.013993 
L 248.073919 347.224276 
L 248.163256 348.059566 
L 248.192182 346.8189 
L 248.194009 346.808437 
L 248.215704 347.806582 
L 248.300731 348.26398 
L 248.262454 346.707042 
L 248.320527 347.465919 
L 248.435941 346.417126 
L 248.387073 348.407489 
L 248.445364 346.584906 
L 248.489485 348.592906 
L 248.545804 346.213429 
L 248.548215 346.204522 
L 248.569545 346.87474 
L 248.612862 348.838304 
L 248.669108 346.22941 
L 248.684594 345.919224 
L 248.73244 348.075006 
L 248.764581 349.172638 
L 248.819805 346.657426 
L 248.85421 345.523909 
L 248.909288 347.920639 
L 248.955453 349.644738 
L 249.011262 347.351046 
L 249.070722 344.953737 
L 249.126676 347.076268 
L 249.203157 350.342204 
L 249.259111 348.421065 
L 249.356775 344.087979 
L 249.413533 345.83387 
L 249.537275 351.435234 
L 249.596297 349.802218 
L 249.752326 342.680318 
L 249.815804 344.277529 
L 250.012959 353.291435 
L 250.083596 351.655968 
L 250.335317 340.161697 
L 250.41713 341.926195 
L 250.744527 356.831656 
L 250.842922 354.838126 
L 251.068565 341.797942 
L 251.281133 334.957622 
L 251.296473 334.995868 
L 251.356445 335.858245 
L 251.50137 341.875786 
L 252.016427 364.944886 
L 252.024608 364.936967 
L 252.070482 364.60856 
L 252.184801 361.82152 
L 252.425272 349.298848 
L 252.963485 322.419783 
L 253.087008 321.242019 
L 253.129083 321.379979 
L 253.228427 322.753198 
L 253.419592 329.092094 
L 253.793375 350.4958 
L 254.446125 385.468819 
L 254.725604 390.863367 
L 254.795364 391.077308 
L 254.849419 390.934919 
L 254.9633 389.777566 
L 255.166225 385.018138 
L 255.493112 371.285198 
L 256.096117 334.667099 
L 257.021553 281.419011 
L 257.491466 265.884687 
L 257.817111 261.088262 
L 258.006231 260.541448 
L 317.836409 260.652528 
L 317.963219 261.428947 
L 318.171258 264.329879 
L 318.471263 272.073712 
L 318.883176 289.178936 
L 319.50101 325.467985 
L 320.484446 382.000807 
L 320.818345 390.353773 
L 320.94552 391.077407 
L 320.986354 390.996857 
L 321.083872 390.176374 
L 321.260427 386.438979 
L 321.539614 375.023177 
L 322.131005 338.881833 
L 322.520127 322.543774 
L 322.651905 321.24202 
L 322.691642 321.366471 
L 322.786531 322.656196 
L 322.96557 328.729991 
L 323.344393 351.254701 
L 323.674567 364.687761 
L 323.722266 364.944868 
L 323.777052 364.590196 
L 323.889691 361.7073 
L 324.129359 348.461786 
L 324.450621 334.964427 
L 324.458583 334.957982 
L 324.490359 335.138086 
L 324.577942 337.302046 
L 324.799056 349.891056 
L 324.9938 356.831658 
L 325.021485 356.66452 
L 325.102276 354.343824 
L 325.403011 340.161698 
L 325.489207 342.176548 
L 325.725369 353.291435 
L 325.803237 351.263514 
L 325.985929 342.680319 
L 326.052402 344.474004 
L 326.20098 351.435233 
L 326.2638 349.54894 
L 326.381407 344.08798 
L 326.439771 345.973881 
L 326.535098 350.342204 
L 326.591564 348.340045 
L 326.66746 344.953737 
L 326.722903 347.093078 
L 326.782728 349.644739 
L 326.837952 347.345436 
L 326.883972 345.523909 
L 326.939269 347.96102 
L 326.973674 349.172638 
L 327.028825 346.658342 
L 327.053588 345.919224 
L 327.107643 348.404658 
L 327.12532 348.838303 
L 327.176891 346.475359 
L 327.19004 346.204514 
L 327.238689 348.41659 
L 327.24877 348.592909 
L 327.294352 346.536372 
L 327.302241 346.417124 
L 327.344827 348.32331 
L 327.351182 348.407487 
L 327.391139 346.635724 
L 327.396106 346.579804 
L 327.432192 348.195017 
L 327.437451 348.263979 
L 327.475728 346.707041 
L 327.524231 347.706682 
L 327.544173 346.80844 
L 327.574926 348.059564 
L 327.630661 347.98527 
L 327.63687 347.839908 
L 327.655862 346.957959 
L 327.679603 347.923914 
L 327.754257 347.555161 
L 327.761854 347.829311 
L 327.779824 347.100999 
L 327.863755 347.456009 
L 327.870329 347.190179 
L 327.88304 347.709428 
L 327.977563 347.284426 
L 327.985379 347.626184 
L 328.093708 347.37017 
L 328.094584 347.355599 
L 328.099406 347.552849 
L 328.200868 347.496902 
L 328.201307 347.504629 
L 328.203717 347.407471 
L 328.310585 347.451249 
L 328.310877 347.440181 
L 328.311681 347.470725 
L 328.421617 347.456248 
L 328.520231 347.41583 
L 328.5485 347.450567 
L 328.572533 347.515389 
L 328.576916 347.336348 
L 328.657852 347.336348 
L 328.66165 347.446997 
L 328.663331 347.515378 
L 328.715632 347.41583 
L 328.772902 347.455572 
L 328.813297 347.565008 
L 328.815853 347.635075 
L 328.828929 347.0979 
L 328.915417 347.0979 
L 329.079408 347.20802 
L 329.088027 347.63508 
L 329.195553 347.4541 
L 329.244276 347.343596 
L 329.326965 347.33635 
L 329.331348 347.515369 
L 329.350121 347.455572 
L 329.495047 347.565417 
L 329.545596 347.994112 
L 329.568825 346.854753 
L 329.688403 346.382558 
L 330.330708 346.49255 
L 330.362264 347.99411 
L 330.474611 347.442324 
L 330.817057 347.549652 
L 330.819832 347.635075 
L 330.832981 347.0979 
L 330.920126 347.0979 
L 331.08346 347.208578 
L 331.09208 347.635084 
L 331.199605 347.4541 
L 331.248328 347.343342 
L 331.330944 347.336348 
L 331.335327 347.515385 
L 331.3541 347.455572 
L 331.532701 347.344936 
L 331.604945 346.992691 
L 331.624156 347.908659 
L 331.735042 349.071194 
L 331.671783 346.484699 
L 331.752573 348.714819 
L 331.979969 344.23653 
L 334.080663 344.347405 
L 334.140343 347.213504 
L 334.185048 349.071196 
L 334.241586 346.574124 
L 334.248233 346.4847 
L 334.287898 348.103324 
L 334.32413 347.31414 
L 334.335014 347.802833 
L 334.350134 347.185432 
L 334.437645 347.467412 
L 334.532387 347.41583 
L 334.503607 347.475494 
L 334.549042 347.455572 
L 334.588342 347.344568 
L 334.671031 347.336348 
L 334.675414 347.515408 
L 334.694552 347.455572 
L 334.82538 347.56297 
L 334.827937 347.635085 
L 334.841012 347.097901 
L 334.927646 347.0979 
L 335.091491 347.206167 
L 335.100184 347.635083 
L 335.207709 347.4541 
L 335.256359 347.344477 
L 335.339048 347.336348 
L 335.343431 347.515409 
L 335.36257 347.455572 
L 335.507203 347.566098 
L 335.557752 347.994113 
L 335.580324 346.890042 
L 335.700267 346.382558 
L 336.342864 346.493549 
L 336.374421 347.994113 
L 336.486621 347.442324 
L 336.829213 347.551603 
L 336.831989 347.635085 
L 336.845064 347.0979 
L 336.932137 347.0979 
L 337.095543 347.20672 
L 337.104236 347.635078 
L 337.211762 347.4541 
L 337.260411 347.344208 
L 337.343101 347.336348 
L 337.347483 347.515408 
L 337.366549 347.455572 
L 337.596209 347.345152 
L 337.667284 347.177591 
L 337.681967 347.776307 
L 337.68299 347.769871 
L 337.743034 346.924992 
L 337.769916 348.090929 
L 337.771961 348.104001 
L 337.795336 347.010952 
L 337.912869 346.066911 
L 337.853263 348.497358 
L 337.921781 346.180138 
L 337.994609 349.398826 
L 338.054654 346.722202 
L 338.11353 344.542955 
L 338.170215 346.43821 
L 338.303161 352.302447 
L 338.360503 351.048842 
L 338.7936 337.798447 
L 345.323297 337.909268 
L 345.394956 339.674393 
L 345.653251 352.302447 
L 345.74478 349.051577 
L 345.842955 344.542955 
L 345.897375 346.448466 
L 345.961876 349.398827 
L 346.016808 346.964611 
L 346.043543 346.066911 
L 346.101762 348.493543 
L 346.103223 348.497352 
L 346.119804 347.990003 
L 346.148658 346.645144 
L 346.184451 348.104001 
L 346.233612 347.837321 
L 346.237264 347.897753 
L 346.257352 347.081395 
L 346.32945 347.357937 
L 346.332007 347.284874 
L 346.339969 347.609193 
L 346.438656 347.45677 
L 346.527846 347.475504 
L 346.529307 347.41583 
L 346.549103 347.41583 
L 346.840562 347.526448 
L 346.852176 347.635084 
L 346.865252 347.097901 
L 346.905136 347.0979 
L 347.115731 347.205979 
L 347.124424 347.635084 
L 347.231949 347.4541 
L 347.280599 347.344569 
L 347.363288 347.336348 
L 347.367671 347.515408 
L 347.386809 347.455572 
L 347.531443 347.566023 
L 347.581992 347.994113 
L 347.604636 346.886079 
L 347.724507 346.382558 
L 348.367104 346.493436 
L 348.39866 347.994113 
L 348.510861 347.442324 
L 348.853453 347.551383 
L 348.856228 347.635085 
L 348.869304 347.0979 
L 348.956376 347.0979 
L 349.119783 347.206532 
L 349.128476 347.63508 
L 349.236001 347.4541 
L 349.284651 347.344299 
L 349.36734 347.336348 
L 349.371723 347.515409 
L 349.390788 347.455572 
L 349.569024 347.346222 
L 349.641268 346.992685 
L 349.660844 347.923504 
L 349.771365 349.071197 
L 349.708106 346.484702 
L 349.789261 348.702312 
L 350.014612 344.23653 
L 352.116986 344.346698 
L 352.17652 347.201246 
L 352.221371 349.071196 
L 352.277982 346.573323 
L 352.28463 346.484699 
L 352.324221 348.103319 
L 352.360526 347.316043 
L 352.371337 347.802828 
L 352.38653 347.185428 
L 352.474041 347.466278 
L 352.56871 347.41583 
L 352.53993 347.475444 
L 352.585365 347.455572 
L 352.624665 347.345602 
L 352.707427 347.336348 
L 352.71181 347.515392 
L 352.731241 347.455572 
L 352.861776 347.564596 
L 352.864333 347.635079 
L 352.877408 347.0979 
L 352.963896 347.0979 
L 353.127887 347.207643 
L 353.136507 347.635076 
L 353.244033 347.4541 
L 353.292755 347.343771 
L 353.375445 347.336348 
L 353.379827 347.515385 
L 353.398674 347.455572 
L 353.543599 347.566668 
L 353.594148 347.994106 
L 353.616208 346.91789 
L 353.736444 346.382558 
L 354.379187 346.492325 
L 354.410817 347.994109 
L 354.523163 347.442324 
L 354.865609 347.55332 
L 354.868385 347.635072 
L 354.88146 347.0979 
L 354.96846 347.0979 
L 355.131939 347.2082 
L 355.140559 347.635082 
L 355.248085 347.4541 
L 355.296807 347.343514 
L 355.379424 347.336348 
L 355.383806 347.515369 
L 355.402653 347.455572 
L 355.723257 347.566598 
L 355.797473 347.656902 
L 355.787904 347.267232 
L 355.804778 347.316881 
L 355.888344 347.109426 
L 355.905291 347.830289 
L 355.947366 347.916478 
L 355.925744 347.038553 
L 355.961026 347.309853 
L 356.027791 346.811684 
L 356.058325 348.156513 
L 356.061539 348.185294 
L 356.091708 346.784076 
L 356.195289 346.333041 
L 356.144083 348.417782 
L 356.207707 346.598161 
L 356.25548 348.782126 
L 356.3099 346.234546 
L 356.327139 345.863821 
L 356.376446 348.075796 
L 356.413992 349.400859 
L 356.469727 346.983091 
L 356.521445 345.02428 
L 356.577618 347.180993 
L 356.657897 350.580933 
L 356.71407 348.77983 
L 356.83679 343.289589 
L 356.895082 344.806831 
L 357.081864 353.285343 
L 357.150382 351.762405 
L 357.438626 338.717718 
L 357.529424 340.509222 
L 357.73739 352.517193 
L 358.000725 361.989682 
L 358.009491 361.995697 
L 358.042362 361.831009 
L 358.13389 359.91004 
L 358.336962 349.912431 
L 358.939821 319.604578 
L 359.114258 318.484197 
L 379.03878 318.595061 
L 379.133303 319.743953 
L 379.307594 325.114905 
L 379.624619 343.250065 
L 380.019294 361.792807 
L 380.058228 361.996183 
L 380.111699 361.592725 
L 380.222877 358.245038 
L 380.626974 338.717719 
L 380.72515 340.926162 
L 380.983737 353.285342 
L 381.066719 350.977046 
L 381.228738 343.289588 
L 381.290755 345.074584 
L 381.40763 350.580934 
L 381.466434 348.538631 
L 381.54401 345.02428 
L 381.599307 347.20869 
L 381.651462 349.400859 
L 381.706613 346.970555 
L 381.738389 345.863823 
L 381.793831 348.403727 
L 381.810048 348.782125 
L 381.861181 346.476056 
L 381.870166 346.333042 
L 381.913483 348.288775 
L 381.921445 348.417779 
L 381.965566 346.621629 
L 382.013558 347.940009 
L 382.037736 346.811686 
L 382.067613 348.027926 
L 382.142486 347.075211 
L 382.159287 347.834683 
L 382.271415 347.550924 
L 382.277624 347.267231 
L 382.286608 347.632133 
L 382.3842 347.45094 
L 382.386026 347.527066 
L 382.389459 347.386891 
L 382.495524 347.465379 
L 382.600566 347.475518 
L 382.609404 347.41583 
L 382.913281 347.526313 
L 382.924896 347.635079 
L 382.937971 347.097904 
L 382.980996 347.0979 
L 383.188523 347.208938 
L 383.197143 347.635085 
L 383.304668 347.4541 
L 383.353391 347.343181 
L 383.436007 347.336348 
L 383.44039 347.515397 
L 383.45909 347.455572 
L 383.604162 347.565795 
L 383.654711 347.994113 
L 383.677575 346.874259 
L 383.797372 346.382558 
L 384.439823 346.493097 
L 384.471379 347.994113 
L 384.583653 347.442324 
L 384.926172 347.550722 
L 384.928948 347.635084 
L 384.942023 347.097901 
L 385.029169 347.0979 
L 385.192502 347.205969 
L 385.201195 347.635084 
L 385.30872 347.4541 
L 385.35737 347.344574 
L 385.440059 347.336348 
L 385.444442 347.515407 
L 385.463581 347.455572 
L 385.641743 347.346587 
L 385.713987 346.992686 
L 385.733636 347.926267 
L 385.844084 349.071196 
L 385.780898 346.4847 
L 385.862054 348.699916 
L 386.087039 344.23653 
L 388.189705 344.346502 
L 388.249239 347.200483 
L 388.294163 349.071195 
L 388.350701 346.573629 
L 388.357349 346.484699 
L 388.397013 348.103323 
L 388.433245 347.315315 
L 388.444129 347.802829 
L 388.45925 347.185428 
L 388.54676 347.466738 
L 388.64143 347.41583 
L 388.612722 347.475399 
L 388.658084 347.455572 
L 388.697384 347.345899 
L 388.780146 347.336348 
L 388.784529 347.515405 
L 388.804033 347.455572 
L 388.934495 347.563976 
L 388.937052 347.635084 
L 388.950127 347.0979 
L 389.036688 347.0979 
L 389.200606 347.207077 
L 389.209299 347.635074 
L 389.316825 347.4541 
L 389.365474 347.344037 
L 389.448164 347.336348 
L 389.452547 347.515402 
L 389.471539 347.455572 
L 389.616319 347.566454 
L 389.666867 347.994109 
L 389.689147 346.90581 
L 389.809236 346.382558 
L 390.451906 346.491988 
L 390.483536 347.994111 
L 390.595956 347.442324 
L 390.938328 347.552665 
L 390.941104 347.63508 
L 390.954179 347.0979 
L 391.041252 347.0979 
L 391.204659 347.207633 
L 391.213278 347.635076 
L 391.320804 347.4541 
L 391.369526 347.343776 
L 391.452216 347.336348 
L 391.456599 347.515386 
L 391.475445 347.455572 
L 391.705325 347.344806 
L 391.7764 347.177598 
L 391.79079 347.775786 
L 391.791082 347.776308 
L 391.799337 347.435197 
L 391.91687 346.645141 
L 391.881076 348.103999 
L 391.921837 346.705765 
L 391.962378 348.497355 
L 392.012269 346.2041 
L 392.021985 346.066911 
L 392.063256 347.879901 
L 392.103651 349.398829 
L 392.159898 346.968336 
L 392.222572 344.542954 
L 392.279257 346.435061 
L 392.412276 352.302446 
L 392.469618 351.048063 
L 392.90257 337.798447 
L 399.432412 337.90945 
L 399.504144 339.678005 
L 399.762367 352.302447 
L 399.853822 349.054965 
L 399.951997 344.542954 
L 400.006491 346.449635 
L 400.070918 349.398828 
L 400.125923 346.963501 
L 400.152658 346.066912 
L 400.210877 348.493645 
L 400.212338 348.497346 
L 400.228773 347.997096 
L 400.2577 346.645142 
L 400.293566 348.103999 
L 400.342727 347.837925 
L 400.34638 347.897756 
L 400.366468 347.081398 
L 400.438565 347.356955 
L 400.441122 347.284867 
L 400.449084 347.609205 
L 400.547698 347.453319 
L 400.636962 347.475425 
L 400.638423 347.41583 
L 400.658218 347.41583 
L 400.949677 347.526649 
L 400.961292 347.635085 
L 400.974367 347.0979 
L 401.008042 347.0979 
L 401.224846 347.206889 
L 401.233539 347.635076 
L 401.341064 347.4541 
L 401.389714 347.344127 
L 401.472403 347.336348 
L 401.476786 347.515405 
L 401.495779 347.455572 
L 401.640558 347.566381 
L 401.691107 347.99411 
L 401.713459 346.901804 
L 401.833549 346.382558 
L 402.476146 346.491875 
L 402.507776 347.994112 
L 402.620195 347.442324 
L 402.962568 347.552446 
L 402.965344 347.635081 
L 402.978419 347.0979 
L 403.065492 347.0979 
L 403.228898 347.207444 
L 403.237518 347.635073 
L 403.345044 347.4541 
L 403.393766 347.343864 
L 403.476456 347.336348 
L 403.480838 347.515392 
L 403.499758 347.455572 
L 403.678139 347.345641 
L 403.750383 346.992686 
L 403.76974 347.914358 
L 403.88048 349.071196 
L 403.817221 346.4847 
L 403.898158 348.710089 
L 404.12475 344.23653 
L 406.226101 344.347014 
L 406.285708 347.207229 
L 406.330486 349.071196 
L 406.387024 346.574738 
L 406.393745 346.484701 
L 406.433336 348.103322 
L 406.469641 347.317219 
L 406.480452 347.802833 
L 406.495646 347.185433 
L 406.583083 347.468119 
L 406.677826 347.41583 
L 406.649045 347.475511 
L 406.694553 347.455572 
L 406.73378 347.345132 
L 406.816469 347.336348 
L 406.820852 347.515377 
L 406.84021 347.455572 
L 406.970891 347.565592 
L 406.973375 347.635075 
L 406.986523 347.0979 
L 407.073011 347.0979 
L 407.237003 347.208559 
L 407.245622 347.635084 
L 407.353148 347.4541 
L 407.40187 347.343351 
L 407.484487 347.336348 
L 407.48887 347.515385 
L 407.507643 347.455572 
L 407.652642 347.56564 
L 407.70319 347.994113 
L 407.7262 346.866435 
L 407.845852 346.382558 
L 408.488302 346.492871 
L 408.519859 347.994112 
L 408.632206 347.442324 
L 408.974651 347.550281 
L 408.977427 347.635081 
L 408.990576 347.0979 
L 409.077648 347.0979 
L 409.240982 347.205595 
L 409.249674 347.635085 
L 409.3572 347.4541 
L 409.405922 347.343101 
L 409.488539 347.336348 
L 409.492922 347.515401 
L 409.511549 347.455572 
L 410.268319 347.345113 
L 410.356268 347.311203 
L 410.349255 347.597209 
L 410.361089 347.532906 
L 410.461675 347.643869 
L 410.452471 347.271318 
L 410.468395 347.331091 
L 410.577382 347.212288 
L 410.565621 347.692915 
L 410.58045 347.286021 
L 410.69864 347.763956 
L 410.683665 347.15563 
L 410.701051 347.725314 
L 410.816246 347.076609 
L 410.797911 347.823052 
L 410.823989 347.354351 
L 410.917271 347.900907 
L 410.895722 347.024836 
L 410.932538 347.195653 
L 411.036776 346.924769 
L 411.011136 347.967416 
L 411.044592 347.141679 
L 411.119685 348.050017 
L 411.149488 346.837347 
L 411.14978 346.837691 
L 411.159568 347.144402 
L 411.246422 348.154365 
L 411.212747 346.7853 
L 411.269651 347.087429 
L 411.356431 346.659373 
L 411.318154 348.217154 
L 411.375131 347.396287 
L 411.482364 348.371056 
L 411.438463 346.582667 
L 411.495732 348.003572 
L 411.627948 346.391834 
L 411.576961 348.466123 
L 411.635983 346.512188 
L 411.68171 348.576806 
L 411.738322 346.272047 
L 411.739053 346.272939 
L 411.752858 346.616344 
L 411.798148 348.706723 
L 411.854686 346.201671 
L 411.86148 346.130825 
L 411.896762 347.622525 
L 411.92861 348.860602 
L 411.985806 346.224056 
L 411.999831 345.962731 
L 412.046216 348.055268 
L 412.075581 349.04472 
L 412.130878 346.484338 
L 412.156299 345.760485 
L 412.209696 348.178763 
L 412.242494 349.267555 
L 412.297499 346.806825 
L 412.334753 345.514169 
L 412.39005 347.926874 
L 412.433732 349.540773 
L 412.489321 347.189091 
L 412.540162 345.209981 
L 412.595897 347.477545 
L 412.654992 349.880795 
L 412.710727 347.714545 
L 412.779173 344.828262 
L 412.834908 346.882517 
L 412.913872 350.311325 
L 412.969826 348.366321 
L 413.060624 344.340229 
L 413.117016 346.186471 
L 413.221109 350.867582 
L 413.278305 349.101977 
L 413.397153 343.702397 
L 413.45581 345.409222 
L 413.591385 351.603767 
L 413.651942 349.937707 
L 413.806583 342.846528 
L 413.869915 344.499438 
L 414.046397 352.606772 
L 414.113381 350.943233 
L 414.31543 341.660584 
L 414.386943 343.3575 
L 414.619161 354.023073 
L 414.696664 352.259271 
L 414.964967 339.950067 
L 415.049701 341.802293 
L 415.362198 356.115468 
L 415.456502 354.120038 
L 415.823126 337.352795 
L 415.928971 339.511277 
L 416.16265 352.988379 
L 416.364552 359.394559 
L 416.384348 359.327706 
L 416.452355 358.112082 
L 416.615981 350.261642 
L 417.005323 333.13248 
L 417.012555 333.131008 
L 417.040532 333.264866 
L 417.125632 334.983149 
L 417.316285 344.374649 
L 417.758221 364.834696 
L 417.791969 364.96313 
L 417.844563 364.637019 
L 417.957202 361.898943 
L 418.194606 349.469761 
L 418.673942 326.240609 
L 418.758896 325.573958 
L 418.811271 325.831155 
L 418.922376 327.997264 
L 419.138231 337.441717 
L 419.92758 375.335962 
L 419.986894 375.58378 
L 420.042045 375.358207 
L 420.155998 373.541956 
L 420.366375 365.945413 
L 420.799326 340.250626 
L 421.323221 313.983249 
L 421.571216 309.995219 
L 421.599486 309.962358 
L 421.647989 310.107339 
L 421.757414 311.351719 
L 421.955372 316.624743 
L 422.286715 332.408412 
L 423.523259 396.9155 
L 423.772642 399.890741 
L 423.807486 399.922242 
L 423.856793 399.806723 
L 423.969797 398.843962 
L 424.168705 394.884727 
L 424.479521 383.568739 
L 424.983693 355.792885 
L 426.257784 283.412881 
L 426.676783 271.734931 
L 426.950199 268.915565 
L 427.01879 268.815835 
L 427.0708 268.901394 
L 427.188114 269.599141 
L 427.389505 272.386685 
L 427.692286 280.125935 
L 428.126187 297.641556 
L 428.784197 334.423833 
L 430.72857 448.006552 
L 431.306958 467.721625 
L 431.737133 475.88851 
L 432.033851 478.168113 
L 432.144226 478.319469 
L 432.18652 478.2783 
L 432.304492 477.875568 
L 432.502961 476.255243 
L 432.796319 471.760612 
L 433.198517 461.766837 
L 433.732274 442.389646 
L 434.447553 407.540542 
L 435.511267 343.516131 
L 438.159523 180.65663 
L 439.111183 137.223391 
L 439.880517 111.427326 
L 440.51128 97.018017 
L 441.01611 89.963705 
L 441.395883 87.27472 
L 441.644682 86.717118 
L 441.997427 86.7132 
L 621.173567 86.82423 
L 621.34793 87.377479 
L 621.605787 89.054198 
L 621.955099 92.974536 
L 622.400688 100.745856 
L 622.94825 114.532198 
L 623.608598 137.21194 
L 624.406347 172.829404 
L 625.411843 228.472025 
L 627.136854 338.886612 
L 628.494949 419.299888 
L 629.281449 453.853949 
L 629.851803 470.289012 
L 630.264228 476.745648 
L 630.533699 478.278536 
L 630.606673 478.314935 
L 630.651013 478.257169 
L 630.777458 477.758785 
L 630.984108 475.874106 
L 631.281484 470.827492 
L 631.679446 459.840463 
L 632.198885 438.702868 
L 632.909708 399.697317 
L 634.924863 283.648343 
L 635.362051 271.821672 
L 635.641749 268.92522 
L 635.713116 268.81574 
L 635.76498 268.900406 
L 635.880979 269.593578 
L 636.077914 272.367778 
L 636.3693 280.084867 
L 636.780921 297.65845 
L 637.442218 337.030246 
L 638.344718 387.986882 
L 638.719231 398.412439 
L 638.919161 399.92349 
L 638.93063 399.917665 
L 638.993524 399.704347 
L 639.123621 398.287257 
L 639.340206 393.062449 
L 639.670964 378.877253 
L 640.341246 337.855832 
L 640.843519 314.085578 
L 641.097212 310.000578 
L 641.127235 309.962286 
L 641.176468 310.111191 
L 641.285309 311.375437 
L 641.47903 316.712641 
L 641.801169 332.821732 
L 642.603812 374.376317 
L 642.734421 375.583819 
L 642.774451 375.465372 
L 642.870143 374.242697 
L 643.050423 368.518169 
L 643.394403 348.921769 
L 643.852921 326.654116 
L 643.961834 325.573955 
L 644.008585 325.780344 
L 644.11202 327.669838 
L 644.311366 336.223171 
L 644.928761 364.963163 
L 644.937527 364.953987 
L 644.984423 364.600803 
L 645.098377 361.674408 
L 645.341697 348.303229 
L 645.688745 333.196461 
L 645.711024 333.129863 
L 645.758505 333.458908 
L 645.864935 336.436111 
L 646.139228 352.359944 
L 646.355594 359.394559 
L 646.371737 359.349721 
L 646.432659 358.385918 
L 646.578899 351.722934 
L 646.89702 337.352795 
L 646.925289 337.514354 
L 647.006883 339.718619 
L 647.358022 356.115468 
L 647.458096 353.835591 
L 647.75518 339.950067 
L 647.842033 341.929627 
L 648.100985 354.023072 
L 648.183602 351.992173 
L 648.404716 341.660583 
L 648.477763 343.456927 
L 648.673676 352.606772 
L 648.744605 350.722546 
L 648.913563 342.846528 
L 648.978429 344.603934 
L 649.128761 351.603768 
L 649.1918 349.780996 
L 649.32292 343.702397 
L 649.382892 345.508938 
L 649.499037 350.867583 
L 649.557475 349.00434 
L 649.659449 344.340229 
L 649.716499 346.256031 
L 649.806201 350.311325 
L 649.862374 348.321788 
L 649.940973 344.828261 
L 649.996562 346.901408 
L 650.065154 349.880796 
L 650.120524 347.710769 
L 650.179911 345.209981 
L 650.235281 347.478208 
L 650.286341 349.540773 
L 650.341711 347.184374 
L 650.38532 345.514169 
L 650.44069 347.946219 
L 650.477579 349.267555 
L 650.532802 346.785043 
L 650.563774 345.760485 
L 650.61856 348.259751 
L 650.644492 349.04472 
L 650.698547 346.559364 
L 650.720242 345.962731 
L 650.773274 348.407632 
L 650.791463 348.860602 
L 650.843107 346.48163 
L 650.858593 346.130825 
L 650.908777 348.437194 
L 650.921925 348.706723 
L 650.970356 346.487938 
L 650.981751 346.272047 
L 651.028793 348.413735 
L 651.038363 348.576806 
L 651.083141 346.541663 
L 651.092125 346.391834 
L 651.137196 348.397065 
L 651.143112 348.466123 
L 651.179125 346.802794 
L 651.191543 346.494312 
L 651.237709 348.371056 
L 651.290814 346.772864 
L 651.323612 348.288798 
L 651.363642 346.659373 
L 651.419962 347.496331 
L 651.438589 346.726399 
L 651.473651 348.154365 
L 651.527779 347.705432 
L 651.539613 348.099033 
L 651.570585 346.837347 
L 651.62559 346.926858 
L 651.629096 346.883553 
L 651.656708 348.006405 
L 651.701632 347.770604 
L 651.708937 347.967416 
L 651.733627 346.961685 
L 651.810472 347.657317 
L 651.824351 347.024836 
L 651.84517 347.872411 
L 651.919386 347.781294 
L 651.922162 347.823052 
L 651.939985 347.099066 
L 652.025816 347.646712 
L 652.036408 347.15563 
L 652.050944 347.747404 
L 652.144737 347.247272 
L 652.154452 347.692915 
L 652.165993 347.223941 
L 652.262708 347.477468 
L 652.267602 347.271318 
L 652.276514 347.635896 
L 652.372644 347.552762 
L 652.377758 347.31658 
L 652.384478 347.591981 
L 652.485575 347.463018 
L 652.487913 347.555666 
L 652.492807 347.357053 
L 652.596096 347.424939 
L 652.597265 347.387782 
L 652.600552 347.522462 
L 652.707274 347.417141 
L 652.709027 347.496786 
L 652.711072 347.414742 
L 652.820278 347.471382 
L 652.821081 347.434342 
L 652.822104 347.476628 
L 652.931894 347.447814 
L 653.045117 347.456528 
L 653.045556 347.455256 
L 653.146069 347.475471 
L 653.162066 347.41583 
L 653.458784 347.526556 
L 653.470399 347.635085 
L 653.483474 347.0979 
L 653.52029 347.0979 
L 653.733953 347.206455 
L 653.742646 347.635081 
L 653.850172 347.4541 
L 653.898821 347.344336 
L 653.981511 347.336348 
L 653.985893 347.515409 
L 654.004959 347.455572 
L 654.149665 347.566212 
L 654.200214 347.994112 
L 654.222713 346.893894 
L 654.342729 346.382558 
L 654.985253 346.491616 
L 655.016883 347.994113 
L 655.129376 347.442324 
L 655.471675 347.55194 
L 655.474451 347.635084 
L 655.487526 347.0979 
L 655.574599 347.0979 
L 655.738005 347.20701 
L 655.746698 347.635075 
L 655.854224 347.4541 
L 655.902873 347.344069 
L 655.985563 347.336348 
L 655.989946 347.515403 
L 656.008938 347.455572 
L 656.187246 347.345916 
L 656.25949 346.992685 
L 656.278994 347.920641 
L 656.389587 349.071196 
L 656.326328 346.484701 
L 656.407411 348.704772 
L 656.633127 344.23653 
L 658.735208 344.346863 
L 658.794815 347.206642 
L 658.839593 349.071196 
L 658.896132 346.574975 
L 658.902852 346.4847 
L 658.942444 348.103321 
L 658.978748 347.316659 
L 658.989559 347.802831 
L 659.004753 347.18543 
L 659.092264 347.465863 
L 659.186933 347.41583 
L 659.158152 347.475488 
L 659.203588 347.455572 
L 659.242887 347.345355 
L 659.32565 347.336349 
L 659.330032 347.515373 
L 659.34939 347.455572 
L 659.479998 347.565118 
L 659.482555 347.635073 
L 659.495631 347.0979 
L 659.582119 347.0979 
L 659.74611 347.208122 
L 659.754729 347.635081 
L 659.862255 347.4541 
L 659.910977 347.343549 
L 659.993667 347.336351 
L 659.997977 347.515366 
L 660.016823 347.455572 
L 660.161749 347.565459 
L 660.212297 347.994112 
L 660.235527 346.854636 
L 660.355105 346.382558 
L 660.99741 346.492611 
L 661.028966 347.99411 
L 661.141313 347.442324 
L 661.483758 347.549771 
L 661.486534 347.635076 
L 661.499683 347.0979 
L 661.586828 347.0979 
L 661.750162 347.20868 
L 661.758781 347.635085 
L 661.866307 347.4541 
L 661.91503 347.343296 
L 661.997646 347.336348 
L 662.002029 347.515389 
L 662.020802 347.455572 
L 662.250755 347.345773 
L 662.353605 347.081398 
L 662.336585 347.776304 
L 662.361348 347.358017 
L 662.426507 348.103999 
L 662.460912 346.650358 
L 662.462373 346.645142 
L 662.480123 347.304908 
L 662.507808 348.497359 
L 662.567415 346.066912 
L 662.571725 346.093457 
L 662.609855 347.950657 
L 662.649155 349.398828 
L 662.705328 346.971639 
L 662.768076 344.542954 
L 662.82476 346.436321 
L 662.957779 352.302445 
L 663.015049 351.050177 
L 663.448292 337.798447 
L 669.977842 337.908956 
L 670.049429 339.670255 
L 670.30787 352.302446 
L 670.399471 349.044459 
L 670.497501 344.542954 
L 670.551921 346.446461 
L 670.616422 349.398829 
L 670.671353 346.966514 
L 670.698088 346.066911 
L 670.75638 348.49376 
L 670.757768 348.497357 
L 670.774131 348.004005 
L 670.803203 346.645141 
L 670.838997 348.103999 
L 670.88823 347.838611 
L 670.891883 347.897756 
L 670.911898 347.081398 
L 670.983995 347.359633 
L 670.986625 347.284869 
L 670.994587 347.609208 
L 671.093201 347.454697 
L 671.182392 347.475473 
L 671.183926 347.41583 
L 671.203649 347.41583 
L 671.49518 347.526853 
L 671.506795 347.635076 
L 671.51987 347.0979 
L 671.544195 347.0979 
L 671.770349 347.207933 
L 671.778969 347.63508 
L 671.886495 347.4541 
L 671.935217 347.343636 
L 672.017907 347.336349 
L 672.02229 347.515373 
L 672.041136 347.455572 
L 672.185988 347.56538 
L 672.236537 347.994111 
L 672.259839 346.850777 
L 672.379345 346.382558 
L 673.021649 346.492498 
L 673.053279 347.994107 
L 673.165626 347.442324 
L 673.507998 347.54955 
L 673.510774 347.635074 
L 673.523922 347.0979 
L 673.611068 347.0979 
L 673.774402 347.208491 
L 673.783021 347.635084 
L 673.890547 347.4541 
L 673.939269 347.343382 
L 674.021886 347.336348 
L 674.026269 347.515382 
L 674.045042 347.455572 
L 674.223642 347.34499 
L 674.295886 346.992691 
L 674.315098 347.908575 
L 674.425983 349.071195 
L 674.362724 346.484699 
L 674.443515 348.714888 
L 674.670911 344.23653 
L 676.771605 344.347375 
L 676.831284 347.213386 
L 676.875989 349.071196 
L 676.932528 346.574171 
L 676.939175 346.4847 
L 676.97884 348.103324 
L 677.015071 347.314028 
L 677.025955 347.802834 
L 677.041076 347.185433 
L 677.128587 347.467471 
L 677.223329 347.41583 
L 677.194548 347.475499 
L 677.239984 347.455572 
L 677.279283 347.344611 
L 677.361973 347.336348 
L 677.366355 347.515407 
L 677.385567 347.455572 
L 677.516322 347.562874 
L 677.518878 347.635084 
L 677.531954 347.097901 
L 677.618588 347.0979 
L 677.782433 347.20608 
L 677.791125 347.635084 
L 677.898651 347.4541 
L 677.9473 347.34452 
L 678.02999 347.336348 
L 678.034373 347.515408 
L 678.053511 347.455572 
L 678.198145 347.566063 
L 678.248694 347.994113 
L 678.271338 346.885959 
L 678.391209 346.382558 
L 679.033806 346.493496 
L 679.065362 347.994113 
L 679.177563 347.442324 
L 679.520155 347.551501 
L 679.52293 347.635085 
L 679.536006 347.0979 
L 679.623078 347.0979 
L 679.786485 347.206634 
L 679.795178 347.635079 
L 679.902703 347.4541 
L 679.951353 347.34425 
L 680.034042 347.336348 
L 680.038425 347.515408 
L 680.05749 347.455572 
L 680.377803 347.566269 
L 680.452019 347.656897 
L 680.442449 347.267231 
L 680.459981 347.288719 
L 680.542963 347.109424 
L 680.558302 347.802178 
L 680.65246 348.027926 
L 680.625798 346.943459 
L 680.663491 347.650908 
L 680.754507 346.621629 
L 680.716085 348.185291 
L 680.776422 347.535292 
L 680.849907 346.333042 
L 680.906738 348.765282 
L 680.910098 348.782122 
L 680.935299 347.929519 
L 680.981758 345.863822 
L 681.037493 348.455895 
L 681.068611 349.400859 
L 681.12325 347.05011 
L 681.176063 345.02428 
L 681.232237 347.183553 
L 681.312443 350.580934 
L 681.368616 348.781674 
L 681.491335 343.289588 
L 681.549627 344.805267 
L 681.736409 353.285343 
L 681.805 351.760701 
L 682.093245 338.717719 
L 682.18397 340.508001 
L 682.391789 352.506081 
L 682.655271 361.98962 
L 682.664109 361.995676 
L 682.696981 361.830625 
L 682.788509 359.908749 
L 682.991653 349.905428 
L 683.594367 319.605154 
L 683.768877 318.484197 
L 703.693399 318.595286 
L 703.787922 319.744716 
L 703.962213 325.116624 
L 704.279311 343.257495 
L 704.673839 361.792467 
L 704.712847 361.996179 
L 704.766244 361.593214 
L 704.877422 358.246475 
L 705.28152 338.717718 
L 705.379695 340.924747 
L 705.638283 353.285343 
L 705.721337 350.974926 
L 705.883356 343.289589 
L 705.9453 345.072844 
L 706.062249 350.580933 
L 706.120979 348.540611 
L 706.198628 345.02428 
L 706.253852 347.206612 
L 706.306081 349.400859 
L 706.361231 346.968114 
L 706.392934 345.863821 
L 706.448377 348.402293 
L 706.464593 348.782126 
L 706.5158 346.474803 
L 706.524784 346.333041 
L 706.567955 348.28541 
L 706.57599 348.417782 
L 706.620111 346.621627 
L 706.668176 347.938049 
L 706.692282 346.811684 
L 706.722158 348.027926 
L 706.797032 347.074362 
L 706.813905 347.83468 
L 706.926033 347.548621 
L 706.932169 347.267232 
L 706.941154 347.632144 
L 707.038818 347.453532 
L 707.040644 347.527035 
L 707.044077 347.386892 
L 707.150069 347.465296 
L 707.271328 347.41583 
L 707.567899 347.526746 
L 707.579514 347.635082 
L 707.592589 347.0979 
L 707.62232 347.0979 
L 707.843069 347.207367 
L 707.851688 347.635072 
L 707.959214 347.4541 
L 708.007936 347.3439 
L 708.090626 347.336348 
L 708.095009 347.515394 
L 708.113928 347.455572 
L 708.258781 347.566564 
L 708.309329 347.994108 
L 708.331463 346.913958 
L 708.451699 346.382558 
L 709.094369 346.49216 
L 709.125998 347.99411 
L 709.238345 347.442324 
L 709.58079 347.553001 
L 709.583566 347.635076 
L 709.596642 347.0979 
L 709.683641 347.0979 
L 709.847121 347.207923 
L 709.85574 347.635079 
L 709.963266 347.4541 
L 710.011988 347.343641 
L 710.094678 347.336349 
L 710.099061 347.515374 
L 710.117907 347.455572 
L 710.296362 347.345341 
L 710.368605 346.992687 
L 710.38789 347.911434 
L 710.498702 349.071196 
L 710.435444 346.484699 
L 710.516307 348.712527 
L 710.743338 344.23653 
L 712.844324 344.347179 
L 712.90393 347.207874 
L 712.948708 349.071197 
L 713.005247 346.574478 
L 713.011967 346.484702 
L 713.051559 348.103323 
L 713.087863 347.317836 
L 713.098674 347.802834 
L 713.113868 347.185437 
L 713.201306 347.467837 
L 713.296048 347.41583 
L 713.267267 347.475517 
L 713.312703 347.455572 
L 713.352002 347.344891 
L 713.434692 347.336348 
L 713.439075 347.515395 
L 713.458359 347.455572 
L 713.589114 347.566112 
L 713.591597 347.63508 
L 713.604746 347.0979 
L 713.691161 347.0979 
L 713.855152 347.205518 
L 713.863845 347.635085 
L 713.97137 347.4541 
L 714.020093 347.343136 
L 714.102709 347.336348 
L 714.107092 347.515399 
L 714.125792 347.455572 
L 714.270864 347.565836 
L 714.321413 347.994113 
L 714.344277 346.874139 
L 714.464074 346.382558 
L 715.106525 346.493157 
L 715.138081 347.994113 
L 715.250355 347.442324 
L 715.592874 347.550841 
L 715.595649 347.635084 
L 715.608725 347.097901 
L 715.69587 347.0979 
L 715.859204 347.20607 
L 715.867897 347.635084 
L 715.975422 347.4541 
L 716.024072 347.344524 
L 716.106761 347.336348 
L 716.111144 347.515408 
L 716.130283 347.455572 
L 716.35987 347.345407 
L 716.462721 347.081395 
L 716.445628 347.776304 
L 716.470391 347.354712 
L 716.535622 348.104001 
L 716.569954 346.650757 
L 716.571488 346.645145 
L 716.589604 347.328865 
L 716.616924 348.497359 
L 716.67653 346.066911 
L 716.680986 346.09553 
L 716.720358 348.038902 
L 716.75827 349.398827 
L 716.81437 346.975115 
L 716.877191 344.542954 
L 716.933803 346.433172 
L 717.066822 352.302447 
L 717.124164 351.049398 
L 717.557334 337.798447 
L 724.086957 337.909138 
L 724.158617 339.673863 
L 724.416985 352.302445 
L 724.508513 349.047849 
L 724.606616 344.542954 
L 724.661036 346.447631 
L 724.725537 349.398828 
L 724.780468 346.965404 
L 724.807204 346.066911 
L 724.865495 348.49386 
L 724.866883 348.497355 
L 724.8831 348.01103 
L 724.912319 346.645142 
L 724.948112 348.104001 
L 724.997273 347.836889 
L 725.000998 347.897752 
L 725.021013 347.081395 
L 725.093184 347.354866 
L 725.09574 347.28488 
L 725.103703 347.6092 
L 725.202316 347.455907 
L 725.291507 347.475517 
L 725.292968 347.41583 
L 725.312764 347.41583 
L 725.604223 347.526292 
L 725.615837 347.635078 
L 725.628913 347.097904 
L 725.672376 347.0979 
L 725.879465 347.20885 
L 725.888084 347.635085 
L 725.99561 347.4541 
L 726.044332 347.34322 
L 726.126949 347.336348 
L 726.131332 347.515394 
L 726.150032 347.455572 
L 726.295104 347.565759 
L 726.345652 347.994113 
L 726.368589 346.870222 
L 726.488314 346.382558 
L 727.130765 346.493044 
L 727.162321 347.994113 
L 727.274595 347.442324 
L 727.617113 347.550621 
L 727.619889 347.635083 
L 727.633038 347.0979 
L 727.72011 347.0979 
L 727.883444 347.205883 
L 727.892136 347.635085 
L 727.999662 347.4541 
L 728.048311 347.344617 
L 728.131001 347.336348 
L 728.135384 347.515406 
L 728.154595 347.455572 
L 728.332685 347.346644 
L 728.404928 346.992686 
L 728.424578 347.926186 
L 728.535026 349.071196 
L 728.47184 346.4847 
L 728.552995 348.699986 
L 728.777981 344.23653 
L 730.880647 344.346472 
L 730.940107 347.195613 
L 730.985104 349.071195 
L 731.041643 346.573676 
L 731.04829 346.484699 
L 731.087955 348.103323 
L 731.124186 347.315203 
L 731.13507 347.80283 
L 731.150191 347.185428 
L 731.237702 347.466806 
L 731.332371 347.41583 
L 731.303664 347.475411 
L 731.349026 347.455572 
L 731.388325 347.345945 
L 731.471088 347.336348 
L 731.475471 347.515406 
L 731.494974 347.455572 
L 731.625437 347.56388 
L 731.627993 347.635084 
L 731.641069 347.0979 
L 731.72763 347.0979 
L 731.891548 347.20699 
L 731.900241 347.635075 
L 732.007766 347.4541 
L 732.056416 347.344079 
L 732.139105 347.336348 
L 732.143488 347.515404 
L 732.16248 347.455572 
L 732.30726 347.56642 
L 732.357809 347.99411 
L 732.380088 346.905914 
L 732.500178 346.382558 
L 733.142848 346.491936 
L 733.174477 347.994112 
L 733.286897 347.442324 
L 733.62927 347.552564 
L 733.632046 347.63508 
L 733.645121 347.0979 
L 733.732193 347.0979 
L 733.8956 347.207546 
L 733.90422 347.635075 
L 734.011745 347.4541 
L 734.060468 347.343816 
L 734.143157 347.336348 
L 734.14754 347.515389 
L 734.166459 347.455572 
L 734.646088 347.344554 
L 734.72644 347.290943 
L 734.718478 347.614523 
L 734.731699 347.530326 
L 734.837034 347.709428 
L 734.824762 347.212523 
L 734.842366 347.512343 
L 734.940249 347.100999 
L 734.923302 347.792421 
L 734.951718 347.622229 
L 735.04047 347.923914 
L 735.018118 347.013989 
L 735.05581 347.222894 
L 735.145147 348.059564 
L 735.174074 346.818623 
L 735.1759 346.80844 
L 735.197376 347.795726 
L 735.282622 348.263979 
L 735.244345 346.707041 
L 735.302491 347.459697 
L 735.417832 346.417124 
L 735.368891 348.407487 
L 735.427256 346.585751 
L 735.471303 348.592909 
L 735.527696 346.213244 
L 735.530033 346.204514 
L 735.55129 346.867908 
L 735.594753 348.838303 
L 735.650999 346.228467 
L 735.666485 345.919224 
L 735.714258 348.07208 
L 735.746399 349.172638 
L 735.801696 346.655997 
L 735.836101 345.523909 
L 735.891179 347.922169 
L 735.937345 349.644739 
L 735.993153 347.349489 
L 736.052613 344.953737 
L 736.108494 347.073208 
L 736.184975 350.342204 
L 736.241002 348.419612 
L 736.338666 344.08798 
L 736.395424 345.835218 
L 736.519166 351.435234 
L 736.578115 349.804698 
L 736.734217 342.680319 
L 736.797696 344.278674 
L 736.994777 353.291436 
L 737.065487 351.654903 
L 737.317208 340.161698 
L 737.398948 341.924198 
L 737.726346 356.831658 
L 737.824886 354.834355 
L 738.050968 341.766767 
L 738.263024 334.957622 
L 738.27851 334.99672 
L 738.338847 335.870868 
L 738.48443 341.942636 
L 738.998318 364.944885 
L 739.005257 364.939126 
L 739.048428 364.655218 
L 739.158145 362.118404 
L 739.387733 350.511478 
L 739.954653 322.24866 
L 740.068899 321.242021 
L 740.113896 321.399738 
L 740.216747 322.891329 
L 740.413171 329.615878 
L 740.80412 352.363078 
L 741.425533 385.389738 
L 741.706034 390.854208 
L 741.777183 391.077316 
L 741.831091 390.93591 
L 741.944753 389.783826 
L 742.147386 385.040256 
L 742.473834 371.343846 
L 743.075233 334.847013 
L 744.003444 281.417957 
L 744.473285 265.885776 
L 744.799002 261.088089 
L 744.988122 260.541448 
L 804.818227 260.652372 
L 804.944964 261.427843 
L 805.15293 264.326212 
L 805.452862 272.064956 
L 805.864702 289.161969 
L 806.482244 325.42696 
L 807.466483 382.007198 
L 807.800309 390.35488 
L 807.927411 391.077405 
L 807.968318 390.99648 
L 808.065982 390.173212 
L 808.242683 386.42758 
L 808.522089 374.99185 
L 809.116767 338.653298 
L 809.50348 322.514948 
L 809.633723 321.242018 
L 809.674045 321.369824 
L 809.769591 322.681269 
L 809.949579 328.828767 
L 810.334758 351.773438 
L 810.658795 364.712668 
L 810.704158 364.944866 
L 810.758724 364.592696 
L 810.871144 361.722908 
L 811.110081 348.535284 
L 811.432439 334.96453 
L 811.440401 334.957959 
L 811.472323 335.139144 
L 811.55998 337.308506 
L 811.781605 349.932497 
L 811.975692 356.831657 
L 812.003523 356.662459 
L 812.084532 354.326623 
L 812.38483 340.161697 
L 812.47066 342.158054 
L 812.707187 353.291436 
L 812.785494 351.244337 
L 812.96782 342.680319 
L 813.034001 344.460474 
L 813.182798 351.435234 
L 813.245765 349.543577 
L 813.363298 344.087979 
L 813.42159 345.971056 
L 813.516989 350.342203 
L 813.573455 348.33855 
L 813.649351 344.953737 
L 813.704794 347.094626 
L 813.76462 349.644738 
L 813.81977 347.348537 
L 813.865863 345.523909 
L 813.92116 347.962497 
L 813.955492 349.172638 
L 814.010716 346.657023 
L 814.035479 345.919224 
L 814.089461 348.402409 
L 814.107211 348.838304 
L 814.158783 346.474399 
L 814.171931 346.204513 
L 814.220508 348.414931 
L 814.230661 348.592907 
L 814.276316 346.533506 
L 814.284132 346.417126 
L 814.326353 348.314164 
L 814.333 348.407489 
L 814.374857 346.601802 
L 814.377925 346.579802 
L 814.404149 347.751955 
L 814.419342 348.26398 
L 814.457619 346.707042 
L 814.51014 347.453444 
L 814.526064 346.808437 
L 814.556817 348.059566 
L 814.612918 347.98448 
L 814.624678 347.504381 
L 814.637681 346.957961 
L 814.661421 347.923911 
L 814.735491 347.515765 
L 814.743745 347.829317 
L 814.761642 347.100993 
L 814.845573 347.459121 
L 814.852147 347.190175 
L 814.864931 347.709432 
L 814.959381 347.283663 
L 814.96727 347.626186 
L 815.075745 347.36503 
L 815.076403 347.355607 
L 815.081297 347.552844 
L 815.182394 347.481565 
L 815.183198 347.504601 
L 815.185535 347.407477 
L 815.292696 347.440734 
L 815.292769 347.440138 
L 815.293499 347.470795 
L 815.402851 347.455276 
L 815.503583 347.475518 
L 815.474803 347.41583 
L 815.519215 347.455572 
L 815.558076 347.344812 
L 815.640766 347.336348 
L 815.645149 347.515399 
L 815.664433 347.455572 
L 815.795188 347.566285 
L 815.797671 347.635082 
L 815.81082 347.0979 
L 815.897235 347.0979 
L 816.061226 347.205676 
L 816.069919 347.635085 
L 816.177444 347.4541 
L 816.226167 347.343065 
L 816.308783 347.336348 
L 816.313166 347.515403 
L 816.331793 347.455572 
L 816.476938 347.565901 
L 816.527487 347.994113 
L 816.550278 346.878102 
L 816.670075 346.382558 
L 817.312599 346.493253 
L 817.344155 347.994113 
L 817.456429 347.442324 
L 817.798948 347.551028 
L 817.801724 347.635085 
L 817.814799 347.097901 
L 817.901944 347.0979 
L 818.065278 347.206229 
L 818.073971 347.635083 
L 818.181496 347.4541 
L 818.230146 347.344447 
L 818.312835 347.336348 
L 818.317218 347.515409 
L 818.336357 347.455572 
L 818.514519 347.346418 
L 818.586763 346.992685 
L 818.606339 347.923219 
L 818.71686 349.071197 
L 818.653674 346.484701 
L 818.734757 348.702558 
L 818.96018 344.23653 
L 821.062481 344.346592 
L 821.122015 347.200835 
L 821.166939 349.071195 
L 821.223477 346.573488 
L 821.230125 346.484699 
L 821.269789 348.103322 
L 821.306021 347.315651 
L 821.316905 347.802827 
L 821.332026 347.185428 
L 821.419536 347.46653 
L 821.514206 347.41583 
L 821.485425 347.475406 
L 821.53086 347.455572 
L 821.57016 347.345761 
L 821.652922 347.336348 
L 821.657305 347.5154 
L 821.676809 347.455572 
L 821.807271 347.564262 
L 821.809828 347.635082 
L 821.822903 347.0979 
L 821.909464 347.0979 
L 822.073382 347.207338 
L 822.082002 347.635072 
L 822.189528 347.4541 
L 822.23825 347.343914 
L 822.32094 347.336348 
L 822.325323 347.515395 
L 822.344242 347.455572 
L 822.489095 347.566553 
L 822.539643 347.994108 
L 822.561777 346.913993 
L 822.682012 346.382558 
L 823.324682 346.492143 
L 823.356312 347.99411 
L 823.468659 347.442324 
L 823.811104 347.552967 
L 823.81388 347.635077 
L 823.826955 347.0979 
L 823.913955 347.0979 
L 824.077435 347.207894 
L 824.086054 347.635079 
L 824.19358 347.4541 
L 824.242302 347.343654 
L 824.324992 347.336349 
L 824.329375 347.515375 
L 824.348221 347.455572 
L 824.578101 347.34471 
L 824.649176 347.177601 
L 824.663347 347.774716 
L 824.663858 347.776308 
L 824.676422 347.187526 
L 824.789646 346.645141 
L 824.753852 348.103998 
L 824.796804 346.769087 
L 824.835081 348.497358 
L 824.888625 346.121663 
L 824.894761 346.066912 
L 824.928362 347.389148 
L 824.976427 349.398829 
L 825.032747 346.963296 
L 825.095348 344.542954 
L 825.152033 346.435376 
L 825.285052 352.302446 
L 825.342394 351.04784 
L 825.775346 337.798447 
L 832.305188 337.909502 
L 832.37692 339.678217 
L 832.635143 352.302446 
L 832.726598 349.054627 
L 832.824773 344.542954 
L 832.879267 346.449969 
L 832.943694 349.398829 
L 832.998699 346.963184 
L 833.025434 346.066912 
L 833.083653 348.493674 
L 833.085114 348.497345 
L 833.101476 348.000855 
L 833.130476 346.645142 
L 833.166342 348.103998 
L 833.215503 347.838097 
L 833.219156 347.897756 
L 833.239244 347.0814 
L 833.311341 347.356675 
L 833.313898 347.284866 
L 833.32186 347.609207 
L 833.420474 347.453663 
L 833.509738 347.475389 
L 833.511199 347.41583 
L 833.530994 347.41583 
L 833.822453 347.526702 
L 833.834068 347.635084 
L 833.847143 347.0979 
L 833.878773 347.0979 
L 834.097622 347.20715 
L 834.106315 347.635073 
L 834.21384 347.4541 
L 834.26249 347.344003 
L 834.345179 347.336348 
L 834.349562 347.5154 
L 834.368555 347.455572 
L 834.513334 347.566481 
L 834.563883 347.994109 
L 834.586089 346.909966 
L 834.706252 346.382558 
L 835.348922 346.492031 
L 835.380552 347.994111 
L 835.492971 347.442324 
L 835.835344 347.552749 
L 835.83812 347.635079 
L 835.851195 347.0979 
L 835.938194 347.0979 
L 836.101674 347.207706 
L 836.110294 347.635077 
L 836.217819 347.4541 
L 836.266542 347.343742 
L 836.349232 347.336348 
L 836.353614 347.515383 
L 836.372461 347.455572 
L 836.550915 347.345477 
L 836.623159 346.992686 
L 836.642516 347.914607 
L 836.753256 349.071196 
L 836.689997 346.484699 
L 836.770933 348.70988 
L 836.997526 344.23653 
L 839.098877 344.347104 
L 839.158484 347.207581 
L 839.203262 349.071197 
L 839.2598 346.574596 
L 839.266521 346.484701 
L 839.306112 348.103323 
L 839.342417 347.317556 
L 839.353228 347.802834 
L 839.368422 347.185435 
L 839.455859 347.467968 
L 839.550602 347.41583 
L 839.521821 347.475517 
L 839.567329 347.455572 
L 839.606556 347.345001 
L 839.689245 347.336348 
L 839.693628 347.515387 
L 839.712913 347.455572 
L 839.843667 347.565876 
L 839.846151 347.635078 
L 839.859299 347.0979 
L 839.945714 347.0979 
L 840.109779 347.208821 
L 840.118398 347.635085 
L 840.225924 347.4541 
L 840.274646 347.343233 
L 840.357263 347.336348 
L 840.361646 347.515394 
L 840.380346 347.455572 
L 840.525418 347.565747 
L 840.575966 347.994113 
L 840.598903 346.870256 
L 840.718628 346.382558 
L 841.361078 346.493027 
L 841.392635 347.994112 
L 841.504909 347.442324 
L 841.847427 347.550587 
L 841.850203 347.635083 
L 841.863352 347.0979 
L 841.950424 347.0979 
L 842.113758 347.205854 
L 842.12245 347.635085 
L 842.229976 347.4541 
L 842.278625 347.344631 
L 842.361315 347.336348 
L 842.365698 347.515406 
L 842.384909 347.455572 
L 842.705075 347.566091 
L 842.779364 347.656892 
L 842.769722 347.267239 
L 842.787619 347.275449 
L 842.870235 347.109422 
L 842.853946 347.772876 
L 842.884479 347.767308 
L 842.979733 348.027924 
L 842.953144 346.943459 
L 842.991348 347.616654 
L 843.081853 346.621628 
L 843.04343 348.185292 
L 843.103694 347.534254 
L 843.17718 346.333041 
L 843.234084 348.765855 
L 843.237371 348.782124 
L 843.262353 347.943378 
L 843.30903 345.863821 
L 843.364765 348.454992 
L 843.395883 349.40086 
L 843.450523 347.051143 
L 843.503336 345.02428 
L 843.559509 347.182529 
L 843.639715 350.580934 
L 843.695889 348.782596 
L 843.818608 343.289588 
L 843.876973 344.808005 
L 844.063755 353.285342 
L 844.1322 351.764449 
L 844.420518 338.717718 
L 844.511389 340.512888 
L 844.719719 352.545969 
L 844.98269 361.989865 
L 844.991382 361.995684 
L 845.024107 361.832156 
L 845.115416 359.920872 
L 845.31805 349.960426 
L 845.92237 319.592522 
L 846.096514 318.484197 
L 866.020671 318.595196 
L 866.115195 319.744411 
L 866.289485 325.115936 
L 866.606511 343.251657 
L 867.001185 361.793062 
L 867.040119 361.99618 
L 867.093517 361.593458 
L 867.204622 358.250426 
L 867.608792 338.717718 
L 867.707114 340.930409 
L 867.965555 353.285343 
L 868.048464 350.983402 
L 868.210629 343.289589 
L 868.272646 345.075889 
L 868.389522 350.580933 
L 868.448252 348.541601 
L 868.525901 345.02428 
L 868.581198 347.210248 
L 868.633354 349.40086 
L 868.688504 346.969091 
L 868.720207 345.86382 
L 868.775723 348.404802 
L 868.791866 348.782125 
L 868.842999 346.477567 
L 868.852057 346.333041 
L 868.89552 348.294127 
L 868.903263 348.417782 
L 868.947384 346.621627 
L 868.995303 347.945851 
L 869.019554 346.811685 
L 869.049431 348.027923 
L 869.12445 347.077816 
L 869.141178 347.834683 
L 869.253087 347.56175 
L 869.259442 347.267241 
L 869.268427 347.63214 
L 869.366091 347.452495 
L 869.367917 347.527059 
L 869.37135 347.38688 
L 869.477342 347.465091 
L 869.582457 347.475459 
L 869.477853 347.445899 
L 869.589542 347.41583 
L 869.895172 347.526584 
L 869.906787 347.635085 
L 869.919862 347.0979 
L 869.955801 347.0979 
L 870.170341 347.206585 
L 870.179034 347.63508 
L 870.28656 347.4541 
L 870.335209 347.344273 
L 870.417899 347.336348 
L 870.422281 347.515409 
L 870.441347 347.455572 
L 870.586053 347.566263 
L 870.636602 347.994111 
L 870.659028 346.897948 
L 870.779044 346.382558 
L 871.421641 346.491694 
L 871.453271 347.994113 
L 871.565764 347.442324 
L 871.908063 347.552092 
L 871.910839 347.635084 
L 871.923914 347.0979 
L 872.010987 347.0979 
L 872.174393 347.20714 
L 872.183086 347.635073 
L 872.290612 347.4541 
L 872.339261 347.344007 
L 872.421951 347.336348 
L 872.426334 347.5154 
L 872.445326 347.455572 
L 872.623634 347.345833 
L 872.695878 346.992685 
L 872.715309 347.917428 
L 872.825975 349.071196 
L 872.762716 346.4847 
L 872.843726 348.707505 
L 873.06988 344.23653 
L 875.171596 344.346908 
L 875.231203 347.206818 
L 875.275981 349.071196 
L 875.33252 346.574904 
L 875.33924 346.4847 
L 875.378832 348.103321 
L 875.415136 347.316827 
L 875.425947 347.802832 
L 875.441141 347.185431 
L 875.528652 347.465747 
L 875.623321 347.41583 
L 875.59454 347.475497 
L 875.639976 347.455572 
L 875.679275 347.345288 
L 875.762038 347.33635 
L 875.76642 347.515367 
L 875.785778 347.455572 
L 875.916386 347.565261 
L 875.918943 347.635071 
L 875.932019 347.0979 
L 876.018507 347.0979 
L 876.182498 347.208253 
L 876.191117 347.635082 
L 876.298643 347.4541 
L 876.347365 347.34349 
L 876.429982 347.336348 
L 876.434365 347.515372 
L 876.453211 347.455572 
L 876.598137 347.565514 
L 876.648685 347.994112 
L 876.671841 346.858574 
L 876.79142 346.382558 
L 877.433798 346.492689 
L 877.465354 347.994111 
L 877.577701 347.442324 
L 877.920146 347.549924 
L 877.922922 347.635078 
L 877.936071 347.0979 
L 878.023216 347.0979 
L 878.18655 347.208811 
L 878.195169 347.635085 
L 878.302695 347.4541 
L 878.351418 347.343237 
L 878.434034 347.336348 
L 878.438417 347.515393 
L 878.457117 347.455572 
L 878.687143 347.34572 
L 878.789993 347.081397 
L 878.772973 347.776303 
L 878.797736 347.358182 
L 878.862895 348.103999 
L 878.8973 346.650338 
L 878.898761 346.645142 
L 878.916511 347.305076 
L 878.944196 348.497359 
L 879.003803 346.066912 
L 879.008113 346.093491 
L 879.046243 347.950827 
L 879.085543 349.398828 
L 879.141716 346.971465 
L 879.204464 344.542954 
L 879.261148 346.436478 
L 879.394094 352.302447 
L 879.451437 351.050066 
L 879.88468 337.798447 
L 886.41423 337.908982 
L 886.48589 339.673226 
L 886.744258 352.302446 
L 886.835786 349.048866 
L 886.933889 344.542954 
L 886.988309 346.446628 
L 887.05281 349.398829 
L 887.107741 346.966356 
L 887.134476 346.066911 
L 887.192768 348.493775 
L 887.194156 348.497357 
L 887.210519 348.003855 
L 887.239591 346.645141 
L 887.275385 348.103999 
L 887.324618 347.838697 
L 887.328271 347.897755 
L 887.348286 347.081398 
L 887.420383 347.359491 
L 887.423013 347.28487 
L 887.430975 347.609207 
L 887.529589 347.45487 
L 887.61878 347.475484 
L 887.620314 347.41583 
L 887.640037 347.41583 
L 887.931568 347.526877 
L 887.943183 347.635074 
L 887.956185 347.097911 
L 887.979122 347.0979 
L 888.206737 347.208064 
L 888.215357 347.635081 
L 888.322883 347.4541 
L 888.371605 347.343576 
L 888.454295 347.33635 
L 888.458677 347.515367 
L 888.477451 347.455572 
L 888.622376 347.565435 
L 888.672925 347.994112 
L 888.696154 346.854703 
L 888.815733 346.382558 
L 889.458037 346.492576 
L 889.489594 347.99411 
L 889.60194 347.442324 
L 889.944386 347.549703 
L 889.947162 347.635076 
L 889.96031 347.0979 
L 890.047456 347.0979 
L 890.21079 347.208622 
L 890.219409 347.635085 
L 890.326935 347.4541 
L 890.375657 347.343322 
L 890.458274 347.336348 
L 890.462657 347.515387 
L 890.48143 347.455572 
L 890.66003 347.344909 
L 890.732274 346.992691 
L 890.751486 347.908702 
L 890.862371 349.071194 
L 890.799112 346.484699 
L 890.879903 348.714784 
L 891.107299 344.23653 
L 893.207993 344.347421 
L 893.267672 347.213562 
L 893.312377 349.071196 
L 893.368916 346.5741 
L 893.375563 346.4847 
L 893.415228 348.103324 
L 893.451459 347.314196 
L 893.462343 347.802833 
L 893.477464 347.185432 
L 893.564975 347.467382 
L 893.659717 347.415831 
L 893.630936 347.475491 
L 893.676372 347.455572 
L 893.715671 347.344547 
L 893.798361 347.336348 
L 893.802743 347.515408 
L 893.821882 347.455572 
L 893.95271 347.563018 
L 893.955266 347.635085 
L 893.968342 347.097901 
L 894.054976 347.0979 
L 894.218821 347.20621 
L 894.227513 347.635083 
L 894.335039 347.4541 
L 894.383688 347.344456 
L 894.466378 347.336348 
L 894.470761 347.515409 
L 894.489899 347.455572 
L 894.634533 347.566115 
L 894.685082 347.994112 
L 894.707653 346.88999 
L 894.827597 346.382558 
L 895.470194 346.493575 
L 895.50175 347.994113 
L 895.613951 347.442324 
L 895.956543 347.551653 
L 895.959318 347.635085 
L 895.972394 347.0979 
L 896.059466 347.0979 
L 896.222873 347.206764 
L 896.231566 347.635078 
L 896.339091 347.4541 
L 896.387741 347.344187 
L 896.47043 347.336348 
L 896.474813 347.515407 
L 896.493805 347.455572 
L 896.596364 347.455572 
L 896.596364 347.455572 
" style="fill:none;stroke:#1f77b4;stroke-linecap:square;stroke-width:1.5;"/>
   </g>
   <g id="patch_3">
    <path d="M 129.6 497.9016 
L 129.6 67.1328 
" style="fill:none;stroke:#000000;stroke-linecap:square;stroke-linejoin:miter;stroke-width:0.8;"/>
   </g>
   <g id="patch_4">
    <path d="M 933.12 497.9016 
L 933.12 67.1328 
" style="fill:none;stroke:#000000;stroke-linecap:square;stroke-linejoin:miter;stroke-width:0.8;"/>
   </g>
   <g id="patch_5">
    <path d="M 129.6 497.9016 
L 933.12 497.9016 
" style="fill:none;stroke:#000000;stroke-linecap:square;stroke-linejoin:miter;stroke-width:0.8;"/>
   </g>
   <g id="patch_6">
    <path d="M 129.6 67.1328 
L 933.12 67.1328 
" style="fill:none;stroke:#000000;stroke-linecap:square;stroke-linejoin:miter;stroke-width:0.8;"/>
   </g>
  </g>
 </g>
 <defs>
  <clipPath id="pbb0c20e59f">
   <rect height="430.7688" width="803.52" x="129.6" y="67.1328"/>
  </clipPath>
 </defs>
</svg>
